<?xml version="1.0" encoding="UTF-8"?>
<svg version="1.1" xmlns="http://www.w3.org/2000/svg" width="570" height="534">
<path d="M0 0 C3.00102539 0.00314827 6.00104935 -0.02036026 9.00195312 -0.0456543 C46.61812963 -0.16865835 84.15989387 8.6308128 117.90039062 25.31567383 C118.80772949 25.76313965 119.71506836 26.21060547 120.64990234 26.67163086 C134.14839932 33.39055322 147.09836013 40.50366762 159.04492188 49.74926758 C160.00785156 50.49305664 160.97078125 51.2368457 161.96289062 52.00317383 C162.77886719 52.66704102 163.59484375 53.3309082 164.43554688 54.01489258 C167.72091406 55.74869174 169.31524917 55.11337948 172.90039062 54.31567383 C174.72937758 53.68917184 176.53994084 53.00675278 178.33007812 52.27661133 C179.36052246 51.86427246 180.3909668 51.45193359 181.45263672 51.02709961 C183.0973999 50.36556885 183.0973999 50.36556885 184.77539062 49.69067383 C226.50144684 33.31567383 226.50144684 33.31567383 245.90039062 33.31567383 C245.67222656 32.49583008 245.4440625 31.67598633 245.20898438 30.83129883 C244.77779297 29.21481445 244.77779297 29.21481445 244.33789062 27.56567383 C244.04785156 26.49833008 243.7578125 25.43098633 243.45898438 24.33129883 C242.91296809 21.38357454 243.07882301 20.0979795 243.90039062 17.31567383 C244.94195312 18.11489258 245.98351562 18.91411133 247.05664062 19.73754883 C256.95793852 27.32664418 266.90575978 34.84996707 276.90039062 42.31567383 C276.34210642 47.65038952 274.49848021 51.64605793 272.08398438 56.33911133 C271.70806656 57.08528717 271.33214874 57.83146301 270.94483948 58.60025024 C269.75002275 60.96760838 268.54416568 63.32913714 267.33789062 65.69067383 C266.52270045 67.300978 265.70823932 68.91165147 264.89453125 70.52270508 C262.90489871 74.45801981 260.90534966 78.388147 258.90039062 82.31567383 C261.79884314 85.27904765 264.68511585 88.0625286 267.97460938 90.58520508 C268.72049316 91.16061035 269.46637695 91.73601562 270.23486328 92.32885742 C271.0113623 92.92263184 271.78786133 93.51640625 272.58789062 94.12817383 C274.19376264 95.36593206 275.79923381 96.60421052 277.40429688 97.84301758 C278.17531738 98.43711426 278.94633789 99.03121094 279.74072266 99.64331055 C283.83618932 102.81468141 287.8735197 106.05775313 291.90039062 109.31567383 C291.27810694 113.57809431 289.77932367 116.86582802 287.81054688 120.68286133 C287.50596054 121.28067413 287.20137421 121.87848694 286.88755798 122.49441528 C285.59337487 125.03409362 284.28507916 127.56641858 282.9777832 130.09936523 C282.02113515 131.95798203 281.07197144 133.82029251 280.12304688 135.68286133 C279.55336182 136.78742676 278.98367676 137.89199219 278.39672852 139.0300293 C276.83674138 142.45543424 275.84120481 145.68069686 274.90039062 149.31567383 C276.35445312 150.4062207 276.35445312 150.4062207 277.83789062 151.51879883 C287.52539062 158.78442383 297.21289062 166.05004883 306.90039062 173.31567383 C305.39938953 178.28052361 303.32298694 182.73251074 300.98632812 187.33911133 C300.42457382 188.45837509 300.42457382 188.45837509 299.85147095 189.60025024 C298.66321097 191.9656418 297.46939681 194.32817853 296.27539062 196.69067383 C295.46512536 198.3011651 294.65522565 199.91184034 293.84570312 201.52270508 C291.86815609 205.45583617 289.88562546 209.38641791 287.90039062 213.31567383 C287.24039063 213.31567383 286.58039062 213.31567383 285.90039062 213.31567383 C285.24039063 210.34567383 284.58039062 207.37567383 283.90039062 204.31567383 C282.69640625 204.74879883 281.49242187 205.18192383 280.25195312 205.62817383 C278.6764912 206.1908388 277.10096714 206.7533298 275.52539062 207.31567383 C274.73132813 207.6018457 273.93726563 207.88801758 273.11914062 208.18286133 C272.35859375 208.45356445 271.59804688 208.72426758 270.81445312 209.00317383 C270.11271973 209.25454102 269.41098633 209.5059082 268.68798828 209.76489258 C266.90039062 210.31567383 266.90039062 210.31567383 264.90039062 210.31567383 C265.01632568 211.02062988 265.13226074 211.72558594 265.25170898 212.4519043 C265.78362797 215.69764684 266.31078585 218.94414613 266.83789062 222.19067383 C267.11149414 223.85356445 267.11149414 223.85356445 267.390625 225.55004883 C267.56787109 226.64575195 267.74511719 227.74145508 267.92773438 228.87036133 C268.09007568 229.86535645 268.25241699 230.86035156 268.41967773 231.88549805 C269.49341485 239.54725856 270.06168299 247.11986775 270.10351562 254.85473633 C270.11052994 255.73030182 270.11754425 256.60586731 270.12477112 257.50796509 C270.14217415 260.31892101 270.14862379 263.12966601 270.15039062 265.94067383 C270.15140274 267.38379944 270.15140274 267.38379944 270.1524353 268.8560791 C270.13608326 283.53501961 269.64075862 297.85585973 266.90039062 312.31567383 C266.7234668 313.26700195 266.54654297 314.21833008 266.36425781 315.19848633 C259.27894352 352.3015484 245.17579855 388.60769942 222.90039062 419.31567383 C222.14113281 420.36625977 221.381875 421.4168457 220.59960938 422.49926758 C218.40699908 425.47197756 216.17122277 428.40238206 213.90039062 431.31567383 C213.2171875 432.19352539 212.53398437 433.07137695 211.83007812 433.97583008 C200.28828557 448.43501301 187.36219826 461.79400498 172.90039062 473.31567383 C171.80252431 474.2047374 170.70487409 475.09406789 169.60742188 475.98364258 C156.53151725 486.50783248 142.7048042 495.41974545 127.90039062 503.31567383 C127.26020996 503.65840332 126.6200293 504.00113281 125.96044922 504.35424805 C64.24422207 537.08468687 -9.41075074 542.62610989 -75.98388672 522.44116211 C-116.5546039 509.71160907 -152.51446962 487.70296215 -183.09960938 458.31567383 C-183.63714844 457.80004883 -184.1746875 457.28442383 -184.72851562 456.75317383 C-192.06658504 449.67048966 -198.83165721 442.37930958 -205.09960938 434.31567383 C-205.88722656 433.3334082 -206.67484375 432.35114258 -207.48632812 431.33911133 C-223.72046835 410.93332013 -236.99590044 387.7491142 -246.09960938 363.31567383 C-246.46683105 362.33034668 -246.83405273 361.34501953 -247.21240234 360.32983398 C-258.2798949 330.08796857 -263.54209849 299.66697497 -263.47460938 267.56567383 C-263.47406555 266.58555328 -263.47352173 265.60543274 -263.47296143 264.59561157 C-263.3175427 203.33514594 -242.37080193 146.03137778 -204.09960938 98.31567383 C-203.28363281 97.29344727 -202.46765625 96.2712207 -201.62695312 95.21801758 C-190.8593847 81.99522952 -178.64964605 69.67319852 -165.09960938 59.31567383 C-163.8032074 58.29198329 -162.50770527 57.26715261 -161.21289062 56.24145508 C-151.88623387 48.91113957 -142.32837638 42.3178187 -132.09960938 36.31567383 C-131.0704541 35.70344971 -131.0704541 35.70344971 -130.02050781 35.07885742 C-90.62033275 11.77875389 -45.67975677 -0.09965687 0 0 Z M247.79101562 70.68676758 C246.7360791 71.01008057 245.68114258 71.33339355 244.59423828 71.66650391 C243.45776855 72.02510498 242.32129883 72.38370605 241.15039062 72.75317383 C239.99200684 73.11499756 238.83362305 73.47682129 237.64013672 73.84960938 C229.88450882 76.30084531 222.18096026 78.88040363 214.52539062 81.62817383 C213.61176758 81.95293701 212.69814453 82.2777002 211.75683594 82.61230469 C210.90959961 82.92304932 210.06236328 83.23379395 209.18945312 83.55395508 C208.08657959 83.95674683 208.08657959 83.95674683 206.96142578 84.36767578 C204.67508412 85.41930628 202.85845356 86.74431038 200.90039062 88.31567383 C201.51785156 88.97051758 202.1353125 89.62536133 202.77148438 90.30004883 C208.98146321 96.99208081 214.55249181 103.91387184 219.90039062 111.31567383 C226.10108202 110.68277567 231.68826832 108.90200321 237.58789062 106.94067383 C245.30571052 104.4242162 252.96930274 102.07256039 260.90039062 100.31567383 C259.815348 93.03446675 258.44357366 85.82444575 256.90039062 78.62817383 C256.73442383 77.82589355 256.56845703 77.02361328 256.39746094 76.19702148 C255.96438584 74.22095684 255.43997637 72.26534887 254.90039062 70.31567383 C252.07848857 68.9047228 250.77978271 69.76515411 247.79101562 70.68676758 Z M260.54882812 137.89770508 C259.02515625 138.43041016 259.02515625 138.43041016 257.47070312 138.97387695 C256.41625 139.35479492 255.36179687 139.73571289 254.27539062 140.12817383 C253.21320312 140.49749023 252.15101563 140.86680664 251.05664062 141.24731445 C245.51386014 143.00595395 245.51386014 143.00595395 240.90039062 146.31567383 C241.15731689 146.85458252 241.41424316 147.39349121 241.67895508 147.94873047 C242.85833284 150.4245478 244.03562443 152.90135178 245.21289062 155.37817383 C245.61701172 156.22573242 246.02113281 157.07329102 246.4375 157.9465332 C248.69392646 162.69787022 250.86656086 167.46475948 252.90039062 172.31567383 C260.50876529 170.24525329 267.67324982 167.45736906 274.90039062 164.31567383 C274.29867701 157.98818012 273.27887153 151.93971731 271.83789062 145.75317383 C271.65162109 144.93526367 271.46535156 144.11735352 271.2734375 143.2746582 C270.82018376 141.28731486 270.36092851 139.30134182 269.90039062 137.31567383 C266.27681934 136.01273915 264.12847888 136.63636046 260.54882812 137.89770508 Z " fill="#2661AE" transform="translate(263.099609375,-0.315673828125)"/>
<path d="M0 0 C3.00102539 0.00314827 6.00104935 -0.02036026 9.00195312 -0.0456543 C46.61812963 -0.16865835 84.15989387 8.6308128 117.90039062 25.31567383 C118.80772949 25.76313965 119.71506836 26.21060547 120.64990234 26.67163086 C134.14839932 33.39055322 147.09836013 40.50366762 159.04492188 49.74926758 C160.00785156 50.49305664 160.97078125 51.2368457 161.96289062 52.00317383 C162.77886719 52.66704102 163.59484375 53.3309082 164.43554688 54.01489258 C167.72091406 55.74869174 169.31524917 55.11337948 172.90039062 54.31567383 C174.72937758 53.68917184 176.53994084 53.00675278 178.33007812 52.27661133 C179.36052246 51.86427246 180.3909668 51.45193359 181.45263672 51.02709961 C183.0973999 50.36556885 183.0973999 50.36556885 184.77539062 49.69067383 C226.50144684 33.31567383 226.50144684 33.31567383 245.90039062 33.31567383 C245.67222656 32.49583008 245.4440625 31.67598633 245.20898438 30.83129883 C244.77779297 29.21481445 244.77779297 29.21481445 244.33789062 27.56567383 C244.04785156 26.49833008 243.7578125 25.43098633 243.45898438 24.33129883 C242.91296809 21.38357454 243.07882301 20.0979795 243.90039062 17.31567383 C244.94195312 18.11489258 245.98351562 18.91411133 247.05664062 19.73754883 C256.95793852 27.32664418 266.90575978 34.84996707 276.90039062 42.31567383 C276.34210642 47.65038952 274.49848021 51.64605793 272.08398438 56.33911133 C271.70806656 57.08528717 271.33214874 57.83146301 270.94483948 58.60025024 C269.75002275 60.96760838 268.54416568 63.32913714 267.33789062 65.69067383 C266.52270045 67.300978 265.70823932 68.91165147 264.89453125 70.52270508 C262.90489871 74.45801981 260.90534966 78.388147 258.90039062 82.31567383 C261.79884314 85.27904765 264.68511585 88.0625286 267.97460938 90.58520508 C268.72049316 91.16061035 269.46637695 91.73601562 270.23486328 92.32885742 C271.0113623 92.92263184 271.78786133 93.51640625 272.58789062 94.12817383 C274.19376264 95.36593206 275.79923381 96.60421052 277.40429688 97.84301758 C278.17531738 98.43711426 278.94633789 99.03121094 279.74072266 99.64331055 C283.83618932 102.81468141 287.8735197 106.05775313 291.90039062 109.31567383 C291.27810694 113.57809431 289.77932367 116.86582802 287.81054688 120.68286133 C287.50596054 121.28067413 287.20137421 121.87848694 286.88755798 122.49441528 C285.59337487 125.03409362 284.28507916 127.56641858 282.9777832 130.09936523 C282.02113515 131.95798203 281.07197144 133.82029251 280.12304688 135.68286133 C279.55336182 136.78742676 278.98367676 137.89199219 278.39672852 139.0300293 C276.83674138 142.45543424 275.84120481 145.68069686 274.90039062 149.31567383 C276.35445312 150.4062207 276.35445312 150.4062207 277.83789062 151.51879883 C287.52539062 158.78442383 297.21289062 166.05004883 306.90039062 173.31567383 C305.39938953 178.28052361 303.32298694 182.73251074 300.98632812 187.33911133 C300.61182526 188.08528717 300.23732239 188.83146301 299.85147095 189.60025024 C298.66321097 191.9656418 297.46939681 194.32817853 296.27539062 196.69067383 C295.46512536 198.3011651 294.65522565 199.91184034 293.84570312 201.52270508 C291.86815609 205.45583617 289.88562546 209.38641791 287.90039062 213.31567383 C287.24039062 213.31567383 286.58039063 213.31567383 285.90039062 213.31567383 C285.24039062 210.34567383 284.58039063 207.37567383 283.90039062 204.31567383 C281.33700201 205.20902244 278.77470549 206.10533126 276.21289062 207.00317383 C275.51099609 207.24745117 274.80910156 207.49172852 274.0859375 207.7434082 C263.03724988 211.62272519 252.34166509 215.80230584 241.96289062 221.25317383 C240.35607422 222.09525391 240.35607422 222.09525391 238.71679688 222.9543457 C208.07395323 239.26949182 177.24415754 261.40705131 154.90039062 288.31567383 C154.01620361 289.31791306 153.12921969 290.31768823 152.24023438 291.31567383 C121.5094958 326.03938666 102.25171439 368.23039305 96.90039062 414.31567383 C100.53039062 414.31567383 104.16039062 414.31567383 107.90039062 414.31567383 C102.80594764 419.53185902 97.30739709 424.19694988 91.68945312 428.83422852 C90.49161187 429.82610908 89.29891613 430.82423496 88.11132812 431.82836914 C86.38894263 433.28044634 84.64805316 434.70668446 82.90039062 436.12817383 C82.37316406 436.57894287 81.8459375 437.02971191 81.30273438 437.49414062 C79.77539062 438.71020508 79.77539062 438.71020508 76.90039062 440.31567383 C71.8139022 439.60456936 67.70190263 435.05526403 63.90039062 431.81567383 C57.44328957 426.39283009 50.89073487 421.16889418 44.14648438 416.10864258 C43.03466797 415.22112305 43.03466797 415.22112305 41.90039062 414.31567383 C41.90039062 413.98567383 41.90039062 413.65567383 41.90039062 413.31567383 C46.52039063 413.31567383 51.14039063 413.31567383 55.90039062 413.31567383 C48.68749287 370.11887833 37.70857213 329.43594746 19.90039062 289.31567383 C19.52446777 288.45925293 19.14854492 287.60283203 18.76123047 286.72045898 C12.5385581 272.63906641 4.83807744 259.48925819 -3.09960938 246.31567383 C-3.55480957 245.5509375 -4.01000977 244.78620117 -4.47900391 243.99829102 C-15.45865032 225.57445292 -28.55860245 208.46078416 -43.00585938 192.62817383 C-44.78865324 190.65911792 -46.51079384 188.65677181 -48.22460938 186.62817383 C-56.48427108 177.17758416 -65.51702794 168.23634451 -75.38085938 160.47583008 C-77.8552859 158.50979866 -80.24399691 156.46851607 -82.625 154.39111328 C-115.34864398 125.99765846 -156.21678443 104.94328214 -197.09960938 91.31567383 C-195.62988746 87.9244849 -193.73589222 85.6945325 -191.13476562 83.08520508 C-189.94343018 81.88758545 -189.94343018 81.88758545 -188.72802734 80.66577148 C-187.88127441 79.82836426 -187.03452148 78.99095703 -186.16210938 78.12817383 C-185.29473145 77.26756348 -184.42735352 76.40695313 -183.53369141 75.52026367 C-177.63425841 69.71575139 -171.69631385 64.31975829 -165.09960938 59.31567383 C-163.80544879 58.29504785 -162.5125876 57.27277307 -161.22070312 56.24926758 C-151.89261941 48.914612 -142.3315966 42.3197083 -132.09960938 36.31567383 C-131.41350586 35.90752441 -130.72740234 35.499375 -130.02050781 35.07885742 C-90.62033275 11.77875389 -45.67975677 -0.09965687 0 0 Z M247.79101562 70.68676758 C246.7360791 71.01008057 245.68114258 71.33339355 244.59423828 71.66650391 C243.45776855 72.02510498 242.32129883 72.38370605 241.15039062 72.75317383 C239.99200684 73.11499756 238.83362305 73.47682129 237.64013672 73.84960938 C229.88450882 76.30084531 222.18096026 78.88040363 214.52539062 81.62817383 C213.61176758 81.95293701 212.69814453 82.2777002 211.75683594 82.61230469 C210.90959961 82.92304932 210.06236328 83.23379395 209.18945312 83.55395508 C208.08657959 83.95674683 208.08657959 83.95674683 206.96142578 84.36767578 C204.67508412 85.41930628 202.85845356 86.74431038 200.90039062 88.31567383 C201.51785156 88.97051758 202.1353125 89.62536133 202.77148438 90.30004883 C208.98146321 96.99208081 214.55249181 103.91387184 219.90039062 111.31567383 C226.10108202 110.68277567 231.68826832 108.90200321 237.58789062 106.94067383 C245.30571052 104.4242162 252.96930274 102.07256039 260.90039062 100.31567383 C259.815348 93.03446675 258.44357366 85.82444575 256.90039062 78.62817383 C256.73442383 77.82589355 256.56845703 77.02361328 256.39746094 76.19702148 C255.96438584 74.22095684 255.43997637 72.26534887 254.90039062 70.31567383 C252.07848857 68.9047228 250.77978271 69.76515411 247.79101562 70.68676758 Z M260.54882812 137.89770508 C259.02515625 138.43041016 259.02515625 138.43041016 257.47070312 138.97387695 C256.41625 139.35479492 255.36179687 139.73571289 254.27539062 140.12817383 C253.21320313 140.49749023 252.15101563 140.86680664 251.05664062 141.24731445 C245.51386014 143.00595395 245.51386014 143.00595395 240.90039062 146.31567383 C241.15731689 146.85458252 241.41424316 147.39349121 241.67895508 147.94873047 C242.85833284 150.4245478 244.03562443 152.90135178 245.21289062 155.37817383 C245.61701172 156.22573242 246.02113281 157.07329102 246.4375 157.9465332 C248.69392646 162.69787022 250.86656086 167.46475948 252.90039062 172.31567383 C260.50876529 170.24525329 267.67324982 167.45736906 274.90039062 164.31567383 C274.29867701 157.98818012 273.27887153 151.93971731 271.83789062 145.75317383 C271.65162109 144.93526367 271.46535156 144.11735352 271.2734375 143.2746582 C270.82018376 141.28731486 270.36092851 139.30134182 269.90039062 137.31567383 C266.27681934 136.01273915 264.12847888 136.63636046 260.54882812 137.89770508 Z " fill="#EC1B2E" transform="translate(263.099609375,-0.315673828125)"/>
<path d="M0 0 C40.14781505 8.07138365 80.44050951 29.4630929 113 54 C113.58233398 54.43812012 114.16466797 54.87624023 114.76464844 55.32763672 C122.29483263 61.03176152 129.42314214 67.04259063 136.31640625 73.5 C138.60958458 75.63629423 140.93663261 77.70702766 143.3125 79.75 C149.75903867 85.3574231 155.45153329 91.51590949 161 98 C161.80179688 98.91265625 162.60359375 99.8253125 163.4296875 100.765625 C175.327747 114.41585623 185.5848447 129.18887481 194.71777344 144.81152344 C195.5434285 146.22073363 196.37683581 147.62544486 197.21972656 149.02441406 C223.26692662 192.28023036 238.57053751 244.90125181 243 295 C246.16245541 296.0541518 248.86948218 296.31275672 252.1875 296.5625 C253.27417969 296.64628906 254.36085938 296.73007812 255.48046875 296.81640625 C256.31191406 296.87699219 257.14335937 296.93757813 258 297 C250.25525244 304.99457813 241.65564998 312.02302153 233 319 C232.14921875 319.76828125 231.2984375 320.5365625 230.421875 321.328125 C228 323 228 323 226.06323242 322.76635742 C223.8113558 321.92993088 222.40248163 320.95174947 220.56640625 319.41015625 C219.92356689 318.87729004 219.28072754 318.34442383 218.6184082 317.79541016 C217.9399585 317.2235498 217.26150879 316.65168945 216.5625 316.0625 C215.13094232 314.88322301 213.69863975 313.70484973 212.265625 312.52734375 C210.19644383 310.81779709 208.12852092 309.10683058 206.06445312 307.39111328 C204.32536091 305.95408858 202.57151148 304.53751999 200.8125 303.125 C199.80832031 302.30257813 198.80414063 301.48015625 197.76953125 300.6328125 C195.183934 298.81591405 195.183934 298.81591405 192.5546875 298.89453125 C188.87997931 300.48465727 186.2583271 302.88826537 183.3125 305.5625 C182.07274168 306.65752739 180.83184932 307.75127216 179.58984375 308.84375 C178.98253418 309.38128906 178.37522461 309.91882813 177.74951172 310.47265625 C173.9496445 313.78998381 169.98198826 316.90538366 166 320 C165.33226562 320.58652344 164.66453125 321.17304688 163.9765625 321.77734375 C162 323 162 323 160.10253906 322.75195312 C157.71733752 321.89890845 156.30078169 320.84018228 154.3828125 319.19140625 C153.35788696 318.32467285 153.35788696 318.32467285 152.31225586 317.44042969 C151.59046143 316.82071289 150.86866699 316.20099609 150.125 315.5625 C143.99248013 310.38248213 137.7730606 305.51021246 131.11572266 301.02172852 C129.71169909 300.05975851 128.35044527 299.03584074 127 298 C127 297.34 127 296.68 127 296 C130.3 296 133.6 296 137 296 C128.86639258 252.0929157 112.73773969 211.02576582 83 177 C82.33226563 176.22269531 81.66453125 175.44539062 80.9765625 174.64453125 C78.69804957 172.04838175 76.36548537 169.51730011 74 167 C73.21544434 166.1644458 73.21544434 166.1644458 72.41503906 165.31201172 C50.7875825 142.47484223 24.5233591 125.73576695 -5 115 C-5.6177832 114.77183594 -6.23556641 114.54367188 -6.87207031 114.30859375 C-18.333477 110.15375963 -29.9233356 108.41446347 -42 107 C-41.48109611 99.66522343 -40.1923977 92.74357828 -38.375 85.625 C-37.97414185 84.05190063 -37.97414185 84.05190063 -37.56518555 82.44702148 C-30.026658 53.5970263 -18.13092431 23.89439694 0 0 Z " fill="#FDDC01" transform="translate(45,117)"/>
<path d="M0 0 C3.00102539 0.00314827 6.00104935 -0.02036026 9.00195312 -0.0456543 C46.61812963 -0.16865835 84.15989387 8.6308128 117.90039062 25.31567383 C118.80772949 25.76313965 119.71506836 26.21060547 120.64990234 26.67163086 C137.61377004 35.11545317 152.91875834 44.7655886 167.90039062 56.31567383 C165.19265833 59.57092552 161.63879308 61.08913946 157.90039062 62.87817383 C156.44397649 63.59423024 154.98827577 64.31173908 153.53320312 65.03051758 C152.77168945 65.40547363 152.01017578 65.78042969 151.22558594 66.16674805 C130.81905921 76.25002343 111.6350967 87.94707237 93.66601562 101.94702148 C91.97515488 103.25771913 90.26981931 104.54606077 88.55664062 105.82739258 C67.79411432 121.42039697 47.67999085 139.46275736 30.90039062 159.31567383 C30.00202272 160.34031559 29.10214142 161.36363144 28.20117188 162.38598633 C20.92723588 170.68705368 14.29756783 179.32436571 7.90039062 188.31567383 C3.588182 186.77488467 1.46361794 183.47908206 -1.16210938 179.94067383 C-5.70208547 173.98637975 -10.51188717 168.43433165 -15.62695312 162.97192383 C-17.61644202 160.83471617 -19.52805212 158.66943329 -21.41210938 156.44067383 C-29.24255866 147.41863443 -37.96915199 139.00709173 -47.09960938 131.31567383 C-48.11131768 130.43042906 -49.12160072 129.54355415 -50.13085938 128.65551758 C-81.88335471 100.84117425 -118.84121303 78.76686763 -157.33984375 61.6237793 C-161.9976485 59.51959557 -161.9976485 59.51959557 -163.09960938 57.31567383 C-153.00995404 49.87491501 -142.95921237 42.60214935 -132.09960938 36.31567383 C-131.4618457 35.93878418 -130.82408203 35.56189453 -130.16699219 35.17358398 C-90.63936209 11.88620589 -45.8078338 -0.09993629 0 0 Z " fill="#2662AE" transform="translate(263.099609375,-0.315673828125)"/>
<path d="M0 0 C3.85654801 2.2067633 7.31342946 4.70202637 10.8125 7.4375 C16.10604321 11.55409365 21.44359956 15.60716595 26.8125 19.625 C27.880448 20.42442017 27.880448 20.42442017 28.9699707 21.23999023 C30.64615362 22.49398677 32.32300128 23.74709467 34 25 C33.43632008 30.30190399 31.63110793 34.30797343 29.25390625 38.98828125 C28.88273178 39.73208542 28.51155731 40.47588959 28.12913513 41.24223328 C27.34703253 42.80478547 26.56099229 44.36537231 25.77124023 45.92407227 C24.56011016 48.31722223 23.36421819 50.71755318 22.16992188 53.11914062 C21.40714134 54.63846866 20.64349958 56.15736468 19.87890625 57.67578125 C19.52051163 58.39550613 19.162117 59.11523102 18.79286194 59.85676575 C16.23069745 64.88465128 16.23069745 64.88465128 14 66 C13.01 61.71 12.02 57.42 11 53 C-0.21639933 56.05586112 -11.32282853 59.32614538 -22.3125 63.125 C-23.25939697 63.44919922 -24.20629395 63.77339844 -25.18188477 64.10742188 C-30.69332443 66.04150125 -35.83307193 68.27418801 -41 71 C-40.38253906 71.65484375 -39.76507813 72.3096875 -39.12890625 72.984375 C-32.91892742 79.67640698 -27.34789882 86.59819801 -22 94 C-23.50282324 97.00564648 -25.60830475 97.1062492 -28.75 98.25 C-61.77182607 110.90213613 -93.18111214 129.26890201 -121 151 C-122.1480852 151.8806678 -123.29654247 152.7608507 -124.4453125 153.640625 C-130.98812845 158.68221784 -137.26072822 163.87977873 -143.3046875 169.515625 C-145.43771217 171.48171731 -147.59738518 173.38693658 -149.79296875 175.28125 C-154.17719828 179.1053525 -158.32704109 183.1348664 -162.4375 187.25 C-163.55717163 188.37088013 -163.55717163 188.37088013 -164.69946289 189.5144043 C-170.20608871 195.08230161 -175.17339025 200.83266531 -180 207 C-181.68279551 209.00395996 -183.3704786 211.0038237 -185.0625 213 C-189.65200255 218.48729257 -193.87960987 224.15318943 -198 230 C-202.20024321 226.41630625 -204.25256135 222.0638083 -206.75 217.25 C-215.22205828 201.37153258 -225.65138154 186.69600162 -236 172 C-233.35051764 167.08394415 -230.49377025 162.93461966 -226.8125 158.75 C-225.82330234 157.60626069 -224.83503294 156.46171795 -223.84765625 155.31640625 C-223.36184082 154.75453613 -222.87602539 154.19266602 -222.37548828 153.61376953 C-220.44494975 151.34879621 -218.60172934 149.01709498 -216.75 146.6875 C-204.58232389 131.76036878 -190.7067751 117.43607014 -176 105 C-175.04480469 104.15566406 -174.08960938 103.31132813 -173.10546875 102.44140625 C-157.77317438 88.94154725 -141.21490707 76.97726599 -124 66 C-123.38415039 65.60651367 -122.76830078 65.21302734 -122.13378906 64.80761719 C-111.34818656 57.98166053 -100.01698411 52.17298863 -88.65917969 46.36767578 C-86.38944234 45.20029893 -84.13353398 44.01203381 -81.8828125 42.80859375 C-57.76428326 30.06982291 -24.77535183 16 3 16 C2.7834375 15.18015625 2.566875 14.3603125 2.34375 13.515625 C1.92609375 11.89914063 1.92609375 11.89914063 1.5 10.25 C1.08234375 8.64898438 1.08234375 8.64898438 0.65625 7.015625 C0 4 0 4 0 0 Z " fill="#EC1B2E" transform="translate(506,17)"/>
<path d="M0 0 C3.94355339 1.25222009 7.65598322 2.68213437 11.38671875 4.46875 C12.90313965 5.19372681 12.90313965 5.19372681 14.45019531 5.93334961 C15.51850586 6.45034424 16.58681641 6.96733887 17.6875 7.5 C19.3576416 8.30739624 19.3576416 8.30739624 21.06152344 9.13110352 C70.33945696 33.08074481 117.46427866 65.78234816 153 108 C153.83015625 108.96421875 154.6603125 109.9284375 155.515625 110.921875 C198.05511946 160.45571344 228.16266831 219.70581714 244 283 C244.23654297 283.9389209 244.47308594 284.8778418 244.71679688 285.84521484 C250.41629608 308.66294679 254.99437306 331.46832964 256 355 C261.28 355.33 266.56 355.66 272 356 C266.82352926 361.17647074 261.42298072 365.86809026 255.7890625 370.51855469 C254.59122124 371.51043525 253.39852551 372.50856113 252.2109375 373.51269531 C250.48855201 374.96477251 248.74766253 376.39101063 247 377.8125 C246.47277344 378.26326904 245.94554687 378.71403809 245.40234375 379.1784668 C243.875 380.39453125 243.875 380.39453125 241 382 C235.91351158 381.28889553 231.80151201 376.7395902 228 373.5 C221.54289895 368.07715626 214.99034425 362.85322035 208.24609375 357.79296875 C207.13427734 356.90544922 207.13427734 356.90544922 206 356 C206 355.67 206 355.34 206 355 C210.62 355 215.24 355 220 355 C212.78710224 311.8032045 201.80818151 271.12027364 184 231 C183.62407715 230.1435791 183.2481543 229.2871582 182.86083984 228.40478516 C176.63816747 214.32339258 168.93768681 201.17358436 161 188 C160.5447998 187.23526367 160.08959961 186.47052734 159.62060547 185.68261719 C148.64095906 167.25877909 135.54100693 150.14511033 121.09375 134.3125 C119.31095614 132.34344409 117.58881553 130.34109798 115.875 128.3125 C107.6153383 118.86191033 98.58258143 109.92067069 88.71875 102.16015625 C86.24432348 100.19412483 83.85561247 98.15284225 81.47460938 96.07543945 C48.7509654 67.68198463 7.88282494 46.62760831 -33 33 C-31.53027809 29.60881107 -29.63628284 27.37885867 -27.03515625 24.76953125 C-26.23964355 23.97015137 -25.44413086 23.17077148 -24.62451172 22.34716797 C-23.77904785 21.51072754 -22.93358398 20.67428711 -22.0625 19.8125 C-20.77883545 18.53463623 -20.77883545 18.53463623 -19.46923828 17.23095703 C-13.58126398 11.42313666 -7.58290081 6.01420955 -1 1 C-0.67 0.67 -0.34 0.34 0 0 Z " fill="#FDDD01" transform="translate(99,58)"/>
<path d="M0 0 C40.14781505 8.07138365 80.44050951 29.4630929 113 54 C113.58233398 54.43812012 114.16466797 54.87624023 114.76464844 55.32763672 C122.29483263 61.03176152 129.42314214 67.04259063 136.31640625 73.5 C138.60958458 75.63629423 140.93663261 77.70702766 143.3125 79.75 C149.75903867 85.3574231 155.45153329 91.51590949 161 98 C161.80179688 98.91265625 162.60359375 99.8253125 163.4296875 100.765625 C175.327747 114.41585623 185.5848447 129.18887481 194.71777344 144.81152344 C195.5434285 146.22073363 196.37683581 147.62544486 197.21972656 149.02441406 C223.26692662 192.28023036 238.57053751 244.90125181 243 295 C246.16245541 296.0541518 248.86948218 296.31275672 252.1875 296.5625 C253.27417969 296.64628906 254.36085938 296.73007812 255.48046875 296.81640625 C256.31191406 296.87699219 257.14335937 296.93757813 258 297 C250.25525244 304.99457813 241.65564998 312.02302153 233 319 C232.14921875 319.76828125 231.2984375 320.5365625 230.421875 321.328125 C228 323 228 323 226.06323242 322.76635742 C223.8113558 321.92993088 222.40248163 320.95174947 220.56640625 319.41015625 C219.92324463 318.87753174 219.28008301 318.34490723 218.61743164 317.79614258 C217.9393042 317.22404053 217.26117676 316.65193848 216.5625 316.0625 C215.13669175 314.87867093 213.70958854 313.69639994 212.28125 312.515625 C211.56710937 311.92458984 210.85296875 311.33355469 210.1171875 310.72460938 C205.9619881 307.33988514 201.66636481 304.14006 197.37890625 300.92578125 C195 299 195 299 194 297 C198.29 297 202.58 297 207 297 C197.24534296 246.70773053 182.14003263 196.21973136 152 154 C151.20104293 152.85340769 150.40291081 151.70624025 149.60546875 150.55859375 C142.39855473 140.25383648 134.58056747 130.60249592 126.09375 121.31640625 C124.29965017 119.33151595 122.58598419 117.30579989 120.875 115.25 C111.21575705 104.20767838 99.74294413 94.72993134 88 86 C87.37464355 85.52884766 86.74928711 85.05769531 86.10498047 84.57226562 C64.44362263 68.3438515 40.35868689 56.28774952 15 47 C14.15308594 46.66613281 13.30617187 46.33226562 12.43359375 45.98828125 C2.04730115 41.97647663 -9.04647244 39.01775508 -20 37 C-19.40827649 33.24502472 -18.33799139 30.38327305 -16.5234375 27.05078125 C-16.01683594 26.11943359 -15.51023437 25.18808594 -14.98828125 24.22851562 C-14.45589844 23.26623047 -13.92351563 22.30394531 -13.375 21.3125 C-12.86582031 20.36955078 -12.35664062 19.42660156 -11.83203125 18.45507812 C-8.28739446 11.99211256 -4.34646483 5.95142578 0 0 Z " fill="#FDDD00" transform="translate(45,117)"/>
<path d="M0 0 C9.73109336 0.22582706 18.31902963 3.04816713 27.45263672 6.14331055 C29.24670585 6.74666387 31.04574294 7.3353441 32.84814453 7.91333008 C40.08286895 10.25169005 47.04825467 12.98664829 54 16.0625 C55.07942871 16.54001709 56.15885742 17.01753418 57.27099609 17.50952148 C111.01607207 41.67461862 154.00699391 82.64974995 184 133 C184.50789062 133.81210937 185.01578125 134.62421875 185.5390625 135.4609375 C204.91697159 166.65211738 217.43520878 203.3328205 224.8125 239.125 C225.03204346 240.18098389 225.25158691 241.23696777 225.4777832 242.32495117 C225.67718506 243.33404541 225.87658691 244.34313965 226.08203125 245.3828125 C226.25968018 246.27371582 226.4373291 247.16461914 226.62036133 248.08251953 C227.09023377 251.69343638 227 255.35864028 227 259 C217.43 259 207.86 259 198 259 C197.319375 254.91625 196.63875 250.8325 195.9375 246.625 C190.38000005 215.0616531 180.37435549 185.18426849 165 157 C164.60490234 156.27312988 164.20980469 155.54625977 163.80273438 154.79736328 C154.68873892 138.23629379 143.4997569 123.14849784 131 109 C130.24203125 108.13117188 129.4840625 107.26234375 128.703125 106.3671875 C119.85821231 96.36177208 110.50930487 87.24287511 100 79 C99.0615625 78.23300781 98.123125 77.46601563 97.15625 76.67578125 C82.74908162 65.14633336 66.72430032 55.74313105 50 48 C49.37915527 47.70432129 48.75831055 47.40864258 48.11865234 47.10400391 C29.54355641 38.27999273 9.31373217 32.19753191 -11 29 C-8.35842154 18.92898212 -4.1285413 9.53101572 0 0 Z " fill="#236BB2" transform="translate(24,154)"/>
<path d="M0 0 C1.13500977 1.77832031 1.13500977 1.77832031 2.19140625 4.078125 C2.57876953 4.90957031 2.96613281 5.74101562 3.36523438 6.59765625 C3.76033203 7.47292969 4.15542969 8.34820312 4.5625 9.25 C4.96146484 10.10980469 5.36042969 10.96960938 5.77148438 11.85546875 C11 23.18537406 11 23.18537406 11 27 C9.44335937 27.77832032 7.88667746 28.55655816 6.32983398 29.33447266 C4.91203077 30.04379034 3.49490267 30.75445869 2.07836914 31.46630859 C-1.83572315 33.43069707 -5.75857858 35.37115299 -9.70703125 37.265625 C-52.6603054 58.02666506 -96.79651564 89.52041842 -126.76171875 127.203125 C-129.07089132 130.08858322 -131.46843334 132.88299712 -133.875 135.6875 C-145.84833099 150.07032484 -155.77512124 166.21300372 -164 183 C-164.66 183 -165.32 183 -166 183 C-167.74274131 177.96977159 -169.46953655 172.93445462 -171.18188477 167.89379883 C-171.76641456 166.18039892 -172.35524763 164.46846074 -172.94848633 162.75805664 C-173.80128886 160.2968671 -174.63839187 157.83080678 -175.47265625 155.36328125 C-175.74030289 154.60163162 -176.00794952 153.83998199 -176.28370667 153.05525208 C-177.634514 149.0062264 -178.47801382 146.0799806 -177 142 C-175.94360352 139.98632812 -175.94360352 139.98632812 -174.62890625 138.03125 C-173.89885376 136.93719849 -173.89885376 136.93719849 -173.15405273 135.82104492 C-172.62884033 135.0551001 -172.10362793 134.28915527 -171.5625 133.5 C-171.02117432 132.70118408 -170.47984863 131.90236816 -169.92211914 131.0793457 C-154.18295194 108.05356977 -135.29937268 86.05410924 -114 68 C-113.06800781 67.19046875 -112.13601563 66.3809375 -111.17578125 65.546875 C-81.52677401 39.92099563 -47.66068547 19.03518408 -11.99267578 2.90185547 C-10.66202011 2.29962047 -9.33736392 1.68395346 -8.01904297 1.05517578 C-3.33573384 -1.11191128 -3.33573384 -1.11191128 0 0 Z " fill="#226AB3" transform="translate(505,146)"/>
<path d="M0 0 C5.36850153 1.01008916 10.37624772 3.18994744 15.4140625 5.2421875 C16.50750977 5.6851416 17.60095703 6.1280957 18.72753906 6.58447266 C52.02111832 20.27818372 83.2646352 37.92858819 111.0390625 60.9296875 C111.58320801 61.37763672 112.12735352 61.82558594 112.68798828 62.28710938 C128.41141465 75.27102222 144.05808791 89.14418137 157.0390625 104.9296875 C157.50666992 105.49413574 157.97427734 106.05858398 158.45605469 106.64013672 C161.83796622 110.72824072 165.18013359 114.84563785 168.48828125 118.99365234 C169.46532957 120.21342457 170.44884295 121.42807298 171.44140625 122.63525391 C172.6390814 124.09275904 173.80900643 125.57294534 174.9765625 127.0546875 C175.62496094 127.86164063 176.27335938 128.66859375 176.94140625 129.5 C178.0390625 131.9296875 178.0390625 131.9296875 177.50390625 134.7265625 C175.72652986 138.6130922 173.77328505 142.33942294 171.6640625 146.0546875 C171.08398438 147.10849609 171.08398438 147.10849609 170.4921875 148.18359375 C168.37143152 151.94829144 166.32068995 155.03765966 163.0390625 157.9296875 C162.51904663 157.19818481 162.51904663 157.19818481 161.98852539 156.4519043 C153.2814743 144.22978976 144.40253588 132.47505165 134.26953125 121.3828125 C132.81639937 119.78462192 131.38043807 118.17059494 129.96484375 116.5390625 C120.40436499 105.58250643 109.49452228 95.86312298 98.0390625 86.9296875 C97.47026367 86.48302734 96.90146484 86.03636719 96.31542969 85.57617188 C60.69918664 57.73862178 20.45747985 40.52274922 -21.9609375 25.9296875 C-20.42669252 21.20207217 -17.79357929 17.85774041 -14.7109375 14.0546875 C-14.21368164 13.43843506 -13.71642578 12.82218262 -13.20410156 12.18725586 C-12.22530697 10.97624561 -11.24457908 9.76679484 -10.26171875 8.55908203 C-9.18557878 7.21107938 -8.15984614 5.82300741 -7.1484375 4.42578125 C-3.79122894 -0.09002918 -3.79122894 -0.09002918 0 0 Z " fill="#236AB2" transform="translate(67.9609375,91.0703125)"/>
<path d="M0 0 C8.18564284 5.70416844 14.16874069 15.38115962 19.984375 23.3828125 C18.48155176 26.38845898 16.37607025 26.4890617 13.234375 27.6328125 C-19.78745107 40.28494863 -51.19673714 58.65171451 -79.015625 80.3828125 C-80.1637102 81.2634803 -81.31216747 82.1436632 -82.4609375 83.0234375 C-89.00375345 88.06503034 -95.27635322 93.26259123 -101.3203125 98.8984375 C-103.45333717 100.86452981 -105.61301018 102.76974908 -107.80859375 104.6640625 C-112.19282328 108.488165 -116.34266609 112.5176789 -120.453125 116.6328125 C-121.19957275 117.38006592 -121.94602051 118.12731934 -122.71508789 118.8972168 C-128.22171371 124.46511411 -133.18901525 130.21547781 -138.015625 136.3828125 C-139.69842051 138.38677246 -141.3861036 140.3866362 -143.078125 142.3828125 C-147.66762755 147.87010507 -151.89523487 153.53600193 -156.015625 159.3828125 C-158.92158991 156.67275534 -160.93114546 154.11113164 -162.8125 150.6171875 C-163.29589844 149.72773438 -163.77929688 148.83828125 -164.27734375 147.921875 C-164.76847656 147.00148437 -165.25960938 146.08109375 -165.765625 145.1328125 C-166.52552734 143.72902344 -166.52552734 143.72902344 -167.30078125 142.296875 C-168.54539849 139.99550727 -169.78340747 137.69083605 -171.015625 135.3828125 C-165.65178701 126.34633065 -159.37619775 118.37727949 -152.64160156 110.33349609 C-151.19510615 108.59813598 -149.77027232 106.8479038 -148.3515625 105.08984375 C-141.69677172 96.96200671 -134.35488287 89.51106057 -126.953125 82.0703125 C-126.44615082 81.55807129 -125.93917664 81.04583008 -125.4168396 80.51806641 C-118.61993058 73.66661726 -111.57806033 67.39744918 -104.015625 61.3828125 C-102.98806443 60.51943679 -101.96466436 59.65102999 -100.94921875 58.7734375 C-75.34291958 36.81373179 -45.80692442 19.3885121 -15.20947266 5.40039062 C-13.25556896 4.49410634 -11.32631563 3.55371023 -9.40234375 2.5859375 C-7.94248047 1.86664063 -7.94248047 1.86664063 -6.453125 1.1328125 C-5.27556641 0.53726563 -5.27556641 0.53726563 -4.07421875 -0.0703125 C-2.015625 -0.6171875 -2.015625 -0.6171875 0 0 Z " fill="#2369B2" transform="translate(464.015625,87.6171875)"/>
<path d="M0 0 C3.44743085 1.41593391 4.93822363 2.93266123 6.92578125 6.05859375 C7.73825317 7.32872314 7.73825317 7.32872314 8.56713867 8.62451172 C9.43109253 10.01694092 9.43109253 10.01694092 10.3125 11.4375 C11.2257605 12.89567139 11.2257605 12.89567139 12.1574707 14.38330078 C28.67824373 41.0653508 42.18406263 68.67572597 52.93701172 98.14746094 C53.87639628 100.66830825 54.87635404 103.14969806 55.91015625 105.6328125 C59.319528 114.22582088 58.85307988 119.8412132 55.609375 128.38671875 C48.709323 146.99783022 47.71058702 168.37191927 46 188 C44.68 187.67 43.36 187.34 42 187 C41.88785156 185.7315625 41.77570313 184.463125 41.66015625 183.15625 C37.53025906 142.16654889 25.71655451 101.15949479 8 64 C7.6498584 63.25959473 7.2997168 62.51918945 6.93896484 61.75634766 C1.59231983 50.53376278 -4.01913956 38.86957598 -11.328125 28.7890625 C-13 26 -13 26 -12.72705078 24.0715332 C-11.9816891 21.94782807 -11.10043308 20.05071832 -10.0390625 18.06640625 C-9.45511719 16.9690918 -9.45511719 16.9690918 -8.859375 15.84960938 C-8.45203125 15.09486328 -8.0446875 14.34011719 -7.625 13.5625 C-7.22539062 12.81162109 -6.82578125 12.06074219 -6.4140625 11.28710938 C-4.36949082 7.46362583 -2.27575052 3.69258875 0 0 Z " fill="#EC1D2E" transform="translate(245,225)"/>
<path d="M0 0 C3.07408619 2.89078396 4.78783298 6.11970917 6.625 9.875 C7.14441162 10.93122559 7.14441162 10.93122559 7.67431641 12.00878906 C21.15430299 39.78902091 31.57896088 68.8819278 37.8125 99.125 C38.03204346 100.18098389 38.25158691 101.23696777 38.4777832 102.32495117 C38.67718506 103.33404541 38.87658691 104.34313965 39.08203125 105.3828125 C39.34850464 106.71916748 39.34850464 106.71916748 39.62036133 108.08251953 C40.09023377 111.69343638 40 115.35864028 40 119 C30.43 119 20.86 119 11 119 C10.319375 114.91625 9.63875 110.8325 8.9375 106.625 C5.98974926 89.8835011 2.48390993 73.28515969 -3.96484375 57.5 C-4.22019897 56.872146 -4.4755542 56.24429199 -4.73864746 55.59741211 C-5.98881273 52.54618131 -7.27523679 49.5234269 -8.61962891 46.51171875 C-11.75687776 39.1442161 -12.68006686 34.5746164 -10 27 C-9.62979736 25.90913086 -9.25959473 24.81826172 -8.87817383 23.69433594 C-7.59876143 20.06491668 -6.24895931 16.46961624 -4.875 12.875 C-4.40163875 11.62005736 -3.92897765 10.3648504 -3.45703125 9.109375 C-2.31151726 6.07025625 -1.15905378 3.03397494 0 0 Z " fill="#EB1D2E" transform="translate(211,294)"/>
<path d="M0 0 C2.51733106 2.51733106 2.83960128 4.4115793 3.76953125 7.84375 C4.09880615 9.05812744 4.42808105 10.27250488 4.76733398 11.52368164 C5.11672346 12.84885763 5.46508858 14.17430406 5.8125 15.5 C6.0775383 16.50158646 6.0775383 16.50158646 6.34793091 17.52340698 C8.84053325 26.97858726 11.07171801 36.4609481 12.9375 46.0625 C13.13641846 47.07570313 13.33533691 48.08890625 13.5402832 49.1328125 C14.88661634 56.39619307 15.55534537 63.62942272 16 71 C15.01257813 71.06058594 14.02515625 71.12117188 13.0078125 71.18359375 C11.72648437 71.26738281 10.44515625 71.35117187 9.125 71.4375 C7.84882813 71.51871094 6.57265625 71.59992188 5.2578125 71.68359375 C2.11699848 71.79206027 2.11699848 71.79206027 0 73 C-2.04498425 72.91219597 -4.08744948 72.75758462 -6.125 72.5625 C-7.22070312 72.46066406 -8.31640625 72.35882813 -9.4453125 72.25390625 C-10.28835938 72.17011719 -11.13140625 72.08632813 -12 72 C-12.93621458 55.87630438 -9.64123932 39.56212024 -6.5625 23.8125 C-6.36954346 22.81065674 -6.17658691 21.80881348 -5.9777832 20.77661133 C-4.52740388 13.6453333 -2.43482454 6.85461801 0 0 Z " fill="#2470B3" transform="translate(303,342)"/>
<path d="M0 0 C3.66913286 1.45899178 5.12432563 3.23912795 7.20703125 6.55078125 C7.79162109 7.47012451 8.37621094 8.38946777 8.97851562 9.33666992 C11.43895135 13.32898236 13.88166428 17.33190195 16.31494141 21.34082031 C17.72514633 23.56625526 19.18921136 25.61927818 20.82421875 27.6796875 C23.21132409 30.97963564 24.48838043 32.94494122 25 37 C23.25501937 43.14795032 19.74216532 48.52724648 16.33105469 53.87109375 C14.65249706 56.55580074 13.24467977 59.33467585 11.875 62.1875 C11.50117188 62.94417969 11.12734375 63.70085937 10.7421875 64.48046875 C10.49726563 64.98191406 10.25234375 65.48335938 10 66 C7.13026957 62.52100372 5.25762495 58.66079692 3.3125 54.625 C-1.02415124 45.79145643 -5.4864348 36.81621352 -11.296875 28.8515625 C-13 26 -13 26 -12.72900391 24.06762695 C-11.98129959 21.94696124 -11.09946793 20.04891389 -10.0390625 18.06640625 C-9.45511719 16.9690918 -9.45511719 16.9690918 -8.859375 15.84960938 C-8.45203125 15.09486328 -8.0446875 14.34011719 -7.625 13.5625 C-7.22539062 12.81162109 -6.82578125 12.06074219 -6.4140625 11.28710938 C-4.36949082 7.46362583 -2.27575052 3.69258875 0 0 Z " fill="#EC1C2E" transform="translate(245,225)"/>
<path d="M0 0 C2.91448866 2.91448866 3.62652119 6.52104692 4.8125 10.375 C5.07458252 11.21844971 5.33666504 12.06189941 5.60668945 12.9309082 C10.72097875 29.67490886 16 47.42006617 16 65 C6.43 65 -3.14 65 -13 65 C-11.03556135 49.83453365 -8.78491337 35.01747005 -5.375 20.125 C-5.14730423 19.12567947 -5.14730423 19.12567947 -4.91500854 18.10617065 C-3.50916489 11.97264065 -2.06096349 5.95054336 0 0 Z " fill="#226FB4" transform="translate(235,348)"/>
<path d="M0 0 C3.50838546 3.25513822 5.36291318 7.05176741 7.5625 11.25 C7.96146484 11.98863281 8.36042969 12.72726562 8.77148438 13.48828125 C14.66226337 24.64044048 14.66226337 24.64044048 13.38452148 29.19287109 C12.34117392 31.71422955 11.17240307 34.12935103 9.9375 36.5625 C9.08666996 38.32857984 8.24032837 40.09682891 7.3984375 41.8671875 C6.98432617 42.73311523 6.57021484 43.59904297 6.14355469 44.49121094 C4.06267246 49.05635735 2.52071579 53.77672092 0.97265625 58.54296875 C0 61 0 61 -2 62 C-2.27972656 61.1028125 -2.55945313 60.205625 -2.84765625 59.28125 C-5.38496513 51.38377413 -8.21620752 43.8347948 -11.85180664 36.36914062 C-13.73108741 32.34159511 -14.19278907 30.23990098 -13 26 C-12.15843175 24.00230339 -11.25682179 22.02935159 -10.3125 20.078125 C-9.77882813 18.97082031 -9.24515625 17.86351562 -8.6953125 16.72265625 C-8.13585937 15.57667969 -7.57640625 14.43070312 -7 13.25 C-6.44054687 12.08855469 -5.88109375 10.92710937 -5.3046875 9.73046875 C-1.14987245 1.14987245 -1.14987245 1.14987245 0 0 Z " fill="#227FBF" transform="translate(269,262)"/>
</svg>
